<svg width="451" height="451" viewBox="0 0 451 451" fill="none" xmlns="http://www.w3.org/2000/svg">
<path d="M235.277 7.38179L279.901 164.106C280.864 167.491 283.51 170.136 286.894 171.099L443.618 215.723C453.461 218.525 453.461 232.475 443.618 235.277L286.894 279.901C283.509 280.864 280.864 283.51 279.901 286.894L235.277 443.618C232.475 453.461 218.525 453.461 215.723 443.618L171.099 286.894C170.136 283.509 167.49 280.864 164.106 279.901L7.38179 235.277C-2.4606 232.475 -2.4606 218.525 7.38179 215.723L164.106 171.099C167.491 170.136 170.136 167.49 171.099 164.106L215.723 7.38179C218.525 -2.4606 232.475 -2.4606 235.277 7.38179Z" fill="#FFCC00"/>
</svg>
